<svg width="41" height="54" viewBox="0 0 41 54" fill="none" xmlns="http://www.w3.org/2000/svg">
<g filter="url(#filter0_ddd)">
<path fill-rule="evenodd" clip-rule="evenodd" d="M32.4346 19.4698C32.4469 19.2059 32.3656 18.9322 32.1649 18.6986L21.606 6.39666C21.1518 5.86778 20.3264 5.86778 19.8726 6.39666L9.31363 18.6986C9.11298 18.9322 9.03165 19.2059 9.04399 19.4698C9.01804 19.5546 9 19.6428 9 19.7357V41.0617C9 41.5778 9.42725 42 9.94943 42H31.5288C32.051 42 32.4783 41.5778 32.4783 41.0617V19.7357C32.4783 19.6428 32.4602 19.5546 32.4346 19.4698Z" fill="white"/>
<path d="M32.4346 19.4698C32.4469 19.2059 32.3656 18.9322 32.1649 18.6986L21.606 6.39666C21.1518 5.86778 20.3264 5.86778 19.8726 6.39666L9.31363 18.6986C9.11298 18.9322 9.03165 19.2059 9.04399 19.4698C9.01804 19.5546 9 19.6428 9 19.7357V41.0617C9 41.5778 9.42725 42 9.94943 42H31.5288C32.051 42 32.4783 41.5778 32.4783 41.0617V19.7357C32.4783 19.6428 32.4602 19.5546 32.4346 19.4698" stroke="black" stroke-opacity="0.04" stroke-width="0.5"/>
</g>
<path fill-rule="evenodd" clip-rule="evenodd" d="M14.5901 22.875H26.8882V25.125H14.5901V22.875ZM14.5901 28.5H26.8882V30.75H14.5901V28.5ZM26.8882 34.125H14.5901V36.375H26.8882V34.125Z" fill="#D8D8D8"/>
<defs>
<filter id="filter0_ddd" x="0.75" y="0.75" width="39.9783" height="52.5" filterUnits="userSpaceOnUse" color-interpolation-filters="sRGB">
<feFlood flood-opacity="0" result="BackgroundImageFix"/>
<feColorMatrix in="SourceAlpha" type="matrix" values="0 0 0 0 0 0 0 0 0 0 0 0 0 0 0 0 0 0 127 0"/>
<feOffset dy="3"/>
<feGaussianBlur stdDeviation="0.5"/>
<feColorMatrix type="matrix" values="0 0 0 0 0 0 0 0 0 0 0 0 0 0 0 0 0 0 0.1 0"/>
<feBlend mode="normal" in2="BackgroundImageFix" result="effect1_dropShadow"/>
<feColorMatrix in="SourceAlpha" type="matrix" values="0 0 0 0 0 0 0 0 0 0 0 0 0 0 0 0 0 0 127 0"/>
<feOffset dy="1"/>
<feGaussianBlur stdDeviation="0.5"/>
<feColorMatrix type="matrix" values="0 0 0 0 0 0 0 0 0 0 0 0 0 0 0 0 0 0 0.16 0"/>
<feBlend mode="normal" in2="effect1_dropShadow" result="effect2_dropShadow"/>
<feColorMatrix in="SourceAlpha" type="matrix" values="0 0 0 0 0 0 0 0 0 0 0 0 0 0 0 0 0 0 127 0"/>
<feOffset dy="3"/>
<feGaussianBlur stdDeviation="4"/>
<feColorMatrix type="matrix" values="0 0 0 0 0 0 0 0 0 0 0 0 0 0 0 0 0 0 0.15 0"/>
<feBlend mode="normal" in2="effect2_dropShadow" result="effect3_dropShadow"/>
<feBlend mode="normal" in="SourceGraphic" in2="effect3_dropShadow" result="shape"/>
</filter>
</defs>
</svg>
